<svg xmlns="http://www.w3.org/2000/svg" xmlns:xlink="http://www.w3.org/1999/xlink" width="945" height="717.61" viewBox="0 0 945 717.61">
  <defs>
    <filter id="Path_47" x="140.021" y="51.241" width="265.148" height="342.269" filterUnits="userSpaceOnUse">
      <feOffset dy="3" input="SourceAlpha"/>
      <feGaussianBlur stdDeviation="3" result="blur"/>
      <feFlood flood-opacity="0.161"/>
      <feComposite operator="in" in2="blur"/>
      <feComposite in="SourceGraphic"/>
    </filter>
    <filter id="Path_41" x="341.149" y="40.699" width="432.242" height="392.424" filterUnits="userSpaceOnUse">
      <feOffset dy="3" input="SourceAlpha"/>
      <feGaussianBlur stdDeviation="3" result="blur-2"/>
      <feFlood flood-opacity="0.161"/>
      <feComposite operator="in" in2="blur-2"/>
      <feComposite in="SourceGraphic"/>
    </filter>
    <filter id="Path_45" x="603.238" y="52.2" width="266.376" height="349.8" filterUnits="userSpaceOnUse">
      <feOffset dy="3" input="SourceAlpha"/>
      <feGaussianBlur stdDeviation="3" result="blur-3"/>
      <feFlood flood-opacity="0.478"/>
      <feComposite operator="in" in2="blur-3"/>
      <feComposite in="SourceGraphic"/>
    </filter>
    <filter id="Path_46" x="123.654" y="42.934" width="277.752" height="358.806" filterUnits="userSpaceOnUse">
      <feOffset dy="3" input="SourceAlpha"/>
      <feGaussianBlur stdDeviation="3" result="blur-4"/>
      <feFlood flood-opacity="0.22"/>
      <feComposite operator="in" in2="blur-4"/>
      <feComposite in="SourceGraphic"/>
    </filter>
    <filter id="Path_42" x="274.365" y="40.715" width="251.844" height="360.615" filterUnits="userSpaceOnUse">
      <feOffset dy="3" input="SourceAlpha"/>
      <feGaussianBlur stdDeviation="3" result="blur-5"/>
      <feFlood flood-opacity="0.161"/>
      <feComposite operator="in" in2="blur-5"/>
      <feComposite in="SourceGraphic"/>
    </filter>
    <filter id="Path_43" x="416.516" y="221.433" width="109.927" height="173.108" filterUnits="userSpaceOnUse">
      <feOffset dy="3" input="SourceAlpha"/>
      <feGaussianBlur stdDeviation="3" result="blur-6"/>
      <feFlood flood-opacity="0.161"/>
      <feComposite operator="in" in2="blur-6"/>
      <feComposite in="SourceGraphic"/>
    </filter>
    <filter id="Path_44" x="357.149" y="39.699" width="432.242" height="392.424" filterUnits="userSpaceOnUse">
      <feOffset dy="3" input="SourceAlpha"/>
      <feGaussianBlur stdDeviation="3" result="blur-7"/>
      <feFlood flood-opacity="0.161"/>
      <feComposite operator="in" in2="blur-7"/>
      <feComposite in="SourceGraphic"/>
    </filter>
    <filter id="Path_48" x="160.919" y="414.73" width="679.71" height="116.366" filterUnits="userSpaceOnUse">
      <feOffset dy="3" input="SourceAlpha"/>
      <feGaussianBlur stdDeviation="3" result="blur-8"/>
      <feFlood flood-opacity="0.549"/>
      <feComposite operator="in" in2="blur-8"/>
      <feComposite in="SourceGraphic"/>
    </filter>
    <filter id="Path_49" x="154.05" y="581.55" width="689.8" height="53.95" filterUnits="userSpaceOnUse">
      <feOffset dy="3" input="SourceAlpha"/>
      <feGaussianBlur stdDeviation="3" result="blur-9"/>
      <feFlood flood-opacity="0.549"/>
      <feComposite operator="in" in2="blur-9"/>
      <feComposite in="SourceGraphic"/>
    </filter>
  </defs>
  <g id="svg" transform="translate(-1151 -526)">
    <g transform="matrix(1, 0, 0, 1, 1151, 526)" filter="url(#Path_47)">
      <path id="Path_47-2" data-name="Path 47" d="M138.006-319.759h37.433q32.021,0,53.895,9.471t34.051,28.639q12.177,19.168,15.785,48.482l-40.139,2.706q-4.059-29.766-20.3-43.3t-46.9-13.53H141.614q-36.531,0-52.767,18.716T72.611-206.558v97.867q0,28.864,7.216,46.453t22.325,25.933q15.108,8.344,39.462,8.344h30.217q30.668,0,46.9-13.53t20.3-43.3l40.139,2.255q-4.961,44.2-30.442,65.621T175.439,4.51H138.006q-54.571,0-80.278-27.737T32.021-108.691v-98.318q0-57.728,25.707-85.239T138.006-319.759Z" transform="translate(117 377)" fill="#fff"/>
    </g>
    <g transform="matrix(1, 0, 0, 1, 1151, 526)" filter="url(#Path_41)">
      <path id="Path_41-2" data-name="Path 41" d="M589.562,557.385,390,900h71.455L623.844,617.529Z" transform="translate(1441.71 159.25) rotate(120)" fill="#fff" stroke="#707070" stroke-width="0.3"/>
    </g>
    <line id="Line_9" data-name="Line 9" x2="450" transform="translate(1151 610)" fill="none" stroke="#d3d3d3" stroke-width="1"/>
    <line id="Line_10" data-name="Line 10" y2="420" transform="translate(1634 556)" fill="none" stroke="#d3d3d3" stroke-width="1"/>
    <line id="Line_11" data-name="Line 11" x2="900" transform="translate(1196 755)" fill="none" stroke="#d3d3d3" stroke-width="1"/>
    <g transform="matrix(1, 0, 0, 1, 1151, 526)" filter="url(#Path_45)">
      <path id="Path_45-2" data-name="Path 45" d="M41.238-331.8H179.172q56.88,0,83.661,29.151t26.781,89.823v100.488q0,59.724-27.018,86.031T179.172,0H41.238ZM83.424-34.128H175.38q38.394,0,55.221-17.775t16.827-61.857v-99.066q0-45.03-17.064-64.938T175.38-297.672H83.424Z" transform="translate(571 390)" fill="#2c2c2c"/>
    </g>
    <g transform="matrix(1, 0, 0, 1, 1151, 526)" filter="url(#Path_46)">
      <path id="Path_46-2" data-name="Path 46" d="M145.044-336.066h39.342q33.654,0,56.643,9.954t35.787,30.1q12.8,20.145,16.59,50.955l-42.186,2.844q-4.266-31.284-21.33-45.5t-49.3-14.22H148.836q-38.394,0-55.458,19.671T76.314-217.092v102.858q0,30.336,7.584,48.822t23.463,27.255q15.879,8.769,41.475,8.769h31.758q32.232,0,49.3-14.22t21.33-45.5l42.186,2.37q-5.214,46.452-31.995,68.967T184.386,4.74H145.044q-57.354,0-84.372-29.151T33.654-114.234V-217.566q0-60.672,27.018-89.586T145.044-336.066Z" transform="translate(99 385)" fill="#2c2c2c"/>
    </g>
    <g transform="matrix(1, 0, 0, 1, 1151, 526)" filter="url(#Path_42)">
      <path id="Path_42-2" data-name="Path 42" d="M589.562,557.385,390,900h71.455L623.844,617.529Z" transform="translate(-106.64 -510.67)" fill="#2c2c2c"/>
    </g>
    <g transform="matrix(1, 0, 0, 1, 1151, 526)" filter="url(#Path_43)">
      <path id="Path_43-2" data-name="Path 43" d="M532.425,840c-2.406-47.451,57.137-101.581,57.137-101.581l34.282,60.144L563.7,892.989S534.831,887.451,532.425,840Z" transform="translate(-106.64 -510.67)" fill="#2c2c2c" stroke="#707070" stroke-width="0.4"/>
    </g>
    <g transform="matrix(1, 0, 0, 1, 1151, 526)" filter="url(#Path_44)">
      <path id="Path_44-2" data-name="Path 44" d="M589.562,557.385,390,900h71.455L623.844,617.529Z" transform="translate(1457.71 158.25) rotate(120)" fill="#fff" stroke="#707070" stroke-width="0.3"/>
    </g>
    <g id="Ellipse_8" data-name="Ellipse 8" transform="translate(1578.365 810.33)" fill="#2c2c2c" stroke="#fff" stroke-width="4">
      <circle cx="53" cy="53" r="53" stroke="none"/>
      <circle cx="53" cy="53" r="51" fill="none"/>
    </g>
    <line id="Line_12" data-name="Line 12" y2="420" transform="translate(1283 526)" fill="none" stroke="#d3d3d3" stroke-width="1"/>
    <line id="Line_13" data-name="Line 13" y2="420" transform="translate(1327 526)" fill="none" stroke="#d3d3d3" stroke-width="1"/>
    <line id="Line_14" data-name="Line 14" y2="420" transform="translate(1764 569)" fill="none" stroke="#d3d3d3" stroke-width="1"/>
    <line id="Line_15" data-name="Line 15" x2="450" transform="translate(1166 574)" fill="none" stroke="#d3d3d3" stroke-width="1"/>
    <g transform="matrix(1, 0, 0, 1, 1151, 526)" filter="url(#Path_48)">
      <path id="Path_48-2" data-name="Path 48" d="M11.919-95.9H51.786q16.44,0,24.181,8.426t7.74,25.961v29.044q0,17.262-7.809,24.866T51.786,0H11.919ZM24.112-9.864H50.69q11.1,0,15.961-5.138T71.514-32.88V-61.513q0-13.015-4.932-18.769T50.69-86.036H24.112ZM276.877-85.9H227.42v31.51h46.854v10H227.42V-10h50.142V0H215.227V-95.9h61.65ZM402.506-64.527v-9.864a27.677,27.677,0,0,1,1.439-9.521,17.028,17.028,0,0,1,5.138-7.056q3.7-3.151,10.48-4.727a75.6,75.6,0,0,1,16.783-1.576,85.277,85.277,0,0,1,17.125,1.438q6.85,1.439,10.549,4.521a16.558,16.558,0,0,1,5.138,6.987,28.147,28.147,0,0,1,1.439,9.659l-12.056.685a14.439,14.439,0,0,0-1.576-7.329q-1.575-2.671-6.576-4.384t-13.905-1.712q-8.768,0-13.7,1.712t-6.439,4.452a15.058,15.058,0,0,0-1.507,7.261v6.5a9.347,9.347,0,0,0,2.4,6.5,14.414,14.414,0,0,0,6.995,3.455,102.825,102.825,0,0,0,14.47,1.965l12.019,1.634a46.723,46.723,0,0,1,9.475,2.354,20.359,20.359,0,0,1,7.46,4.325,19.081,19.081,0,0,1,4.312,6.8,27.236,27.236,0,0,1,1.643,9.957v9.474q0,11.4-8.631,16.753T436.619,1.1q-19.18,0-27.4-5.275T401-22.331l11.782-.548q0,7.261,5.275,10.618t18.7,3.356q13.426,0,19.043-3.283a10.578,10.578,0,0,0,5.617-9.709v-6.565a16.2,16.2,0,0,0-.959-5.88,10.59,10.59,0,0,0-2.673-4.035,13.13,13.13,0,0,0-5.072-2.6,43.906,43.906,0,0,0-7.024-1.514l-9.636-1.283L423.97-45.381a49.856,49.856,0,0,1-9.2-2.089,19.308,19.308,0,0,1-6.781-3.631,15.547,15.547,0,0,1-3.9-5.48A21.361,21.361,0,0,1,402.506-64.527ZM639.514-49.048,673.629,0H659.518L629.479-42.47h-14.9V0H602.389V-95.9h12.193v43.292h13.659L657.326-95.9h14.385Z" transform="translate(158 518)" fill="#2c2c2c"/>
    </g>
    <g transform="matrix(1, 0, 0, 1, 1151, 526)" filter="url(#Path_49)">
      <path id="Path_49-2" data-name="Path 49" d="M15.3-35.45h4.35q5.4,0,8.2,2.425T31.2-25.55l-4.45.25a9.656,9.656,0,0,0-1.175-3.75,5.186,5.186,0,0,0-2.425-2.125,9.8,9.8,0,0,0-3.9-.675H15.7q-4.05,0-5.85,2.075T8.05-22.9v11.35q0,4.65,1.8,6.525T15.7-3.15h4a10.321,10.321,0,0,0,4.35-.775,5.037,5.037,0,0,0,2.475-2.6,12.458,12.458,0,0,0,.825-5.025v-3.1l-9.1-.15v-2.95L31.5-18.1v6.7q0,6.3-2.85,9.075T19.8.45H15.3q-6,0-8.875-2.775T3.55-11.4V-22.95q0-6.4,2.85-9.45T15.3-35.45ZM125.7-35v23.65q0,6.3-2.675,9.075T114.7.5h-4.6q-5.6,0-8.3-2.775T99.1-11.35V-35h4.45v23.65q0,4.55,1.625,6.375T110.5-3.15h3.8q3.7,0,5.325-1.825t1.625-6.375V-35ZM228.373,0H218.9l-5.274-26.955-.176,0L208.07,0h-9.243L191.2-35h4.6L202.65-3.65h2.05L210.93-35h5.37l6.123,31.35H224.4L231.145-35H235.9ZM328.05,0h-4.487L320.74-9.4H304.7L302,0H297.15l10.087-35h10.31ZM311-31.35l-5.252,18.3h13.9l-5.494-18.3ZM421.3,0h-4.45V-15.65H398.8V0h-4.45V-35h4.45v15.65h18.05V-35h4.45Zm97.25,0h-4.487L511.24-9.4H495.2L492.5,0H487.65l10.087-35h10.31ZM501.5-31.35l-5.252,18.3h13.9l-5.494-18.3Zm103.6,0h-11V0h-4.45V-31.35h-11V-35H605.1ZM675.35,0H670.9V-35h4.45Z" transform="translate(159.5 623)" fill="#2c2c2c"/>
    </g>
    <path id="Path_50" data-name="Path 50" d="M0,0H771" transform="translate(1264.5 1099.5)" fill="none" stroke="#707070" stroke-width="2"/>
    <path id="Path_51" data-name="Path 51" d="M17.07-18.81h-6.6V0H7.8V-18.81H1.2V-21H17.07Zm9.51,4.44h-.81q-1.92,0-5.19,1.95V0H18.03V-16.2h2.49v1.83q3.21-2.13,5.25-2.13h.81Zm8.43-2.13h1.65q3.12,0,4.44,1.185t1.32,4.125V0H39.93V-1.5A11.564,11.564,0,0,1,34.65.3H32.94q-4.47,0-4.47-5.04a6.434,6.434,0,0,1,1.155-4.215,4.85,4.85,0,0,1,3.8-1.275h2.85a6.465,6.465,0,0,1,3.6.72v-1.71a3.885,3.885,0,0,0-.735-2.76,3.839,3.839,0,0,0-2.685-.72H35.13a4.17,4.17,0,0,0-2.52.585,2.884,2.884,0,0,0-.87,2.145l-2.34-.12a4.984,4.984,0,0,1,.705-2.595,3.539,3.539,0,0,1,1.83-1.395A9.379,9.379,0,0,1,35.01-16.5Zm2.22,7.83H34.44a4.285,4.285,0,0,0-1.995.39A2.361,2.361,0,0,0,31.365-7.1,5.489,5.489,0,0,0,31.02-4.95a3.608,3.608,0,0,0,.8,2.64,3.1,3.1,0,0,0,2.265.78h1.56a9.51,9.51,0,0,0,4.23-1.5V-8.07A4.03,4.03,0,0,0,37.23-8.67ZM49.5-18.39H46.86V-21H49.5ZM49.44,0H46.89V-16.2h2.55ZM61.68-16.5h1.41a4.728,4.728,0,0,1,3.705,1.245,6.369,6.369,0,0,1,1.155,4.1V0H65.37V-10.86a4.373,4.373,0,0,0-.78-2.85,3.376,3.376,0,0,0-2.61-.84h-1.2a9.173,9.173,0,0,0-4.17,1.5V0H54.06V-16.2h2.49v1.44A11.429,11.429,0,0,1,61.68-16.5Zm13.35-1.89H72.39V-21h2.64ZM74.97,0H72.42V-16.2h2.55ZM87.21-16.5h1.41a4.728,4.728,0,0,1,3.705,1.245,6.369,6.369,0,0,1,1.155,4.1V0H90.9V-10.86a4.373,4.373,0,0,0-.78-2.85,3.377,3.377,0,0,0-2.61-.84h-1.2a9.173,9.173,0,0,0-4.17,1.5V0H79.59V-16.2h2.49v1.44A11.429,11.429,0,0,1,87.21-16.5Zm14.85,0h1.59a11.2,11.2,0,0,1,5.04,1.71v-1.59h2.46V.33q0,2.94-1.32,4.11t-4.41,1.17h-1.65a7.061,7.061,0,0,1-4.2-1.005,4.11,4.11,0,0,1-1.41-3.4l2.31-.12a2.925,2.925,0,0,0,.87,2.175,4.234,4.234,0,0,0,2.55.585h1.29a3.783,3.783,0,0,0,2.685-.735A3.946,3.946,0,0,0,108.6.33V-1.71A10.844,10.844,0,0,1,103.65,0h-1.59A4.634,4.634,0,0,1,98.4-1.245a6.435,6.435,0,0,1-1.14-4.1v-5.82a6.435,6.435,0,0,1,1.14-4.1A4.634,4.634,0,0,1,102.06-16.5Zm2.4,1.92h-1.23a4.432,4.432,0,0,0-1.995.375,2.222,2.222,0,0,0-1.065,1.17,6.07,6.07,0,0,0-.36,2.145v5.22a4.31,4.31,0,0,0,.795,2.85,3.429,3.429,0,0,0,2.625.84h1.23a9.283,9.283,0,0,0,4.14-1.47v-9.66A9.283,9.283,0,0,0,104.46-14.58Zm28.41,6.93h-9.12V-9.51h9.12ZM145.77-21h8.88a9.381,9.381,0,0,1,3.57.585,4.143,4.143,0,0,1,2.085,1.755,5.748,5.748,0,0,1,.675,2.91v1.98q0,5.25-6.33,5.25h-6.21V0h-2.67Zm2.67,2.19v8.1h5.97a4.511,4.511,0,0,0,3-.795,3.261,3.261,0,0,0,.9-2.565v-1.38a4.131,4.131,0,0,0-.39-1.935,2.339,2.339,0,0,0-1.245-1.08,6.163,6.163,0,0,0-2.265-.345ZM167.7,0h-2.55V-22.5h2.55Zm10.23-16.5h1.65q3.12,0,4.44,1.185t1.32,4.125V0h-2.49V-1.5A11.564,11.564,0,0,1,177.57.3h-1.71q-4.47,0-4.47-5.04a6.434,6.434,0,0,1,1.155-4.215,4.85,4.85,0,0,1,3.8-1.275h2.85a6.465,6.465,0,0,1,3.6.72v-1.71a3.885,3.885,0,0,0-.735-2.76,3.839,3.839,0,0,0-2.685-.72h-1.32a4.17,4.17,0,0,0-2.52.585,2.884,2.884,0,0,0-.87,2.145l-2.34-.12a4.984,4.984,0,0,1,.705-2.595,3.539,3.539,0,0,1,1.83-1.395A9.379,9.379,0,0,1,177.93-16.5Zm2.22,7.83h-2.79a4.285,4.285,0,0,0-1.995.39,2.361,2.361,0,0,0-1.08,1.185,5.489,5.489,0,0,0-.345,2.145,3.608,3.608,0,0,0,.795,2.64A3.1,3.1,0,0,0,177-1.53h1.56a9.51,9.51,0,0,0,4.23-1.5V-8.07A4.03,4.03,0,0,0,180.15-8.67ZM195-16.5h2.04a6.351,6.351,0,0,1,4.11,1.155,5.016,5.016,0,0,1,1.68,3.465l-2.28.15A3.833,3.833,0,0,0,200-13.41a2.484,2.484,0,0,0-1.2-.96,5.251,5.251,0,0,0-1.905-.3h-1.62a5.581,5.581,0,0,0-1.71.225,2.7,2.7,0,0,0-1.155.72,2.94,2.94,0,0,0-.675,1.245,6.874,6.874,0,0,0-.21,1.83v5.1a4.466,4.466,0,0,0,.87,3.075,3.765,3.765,0,0,0,2.88.945h1.62a4.029,4.029,0,0,0,2.58-.705,3.326,3.326,0,0,0,1.08-2.235l2.28.15a5.016,5.016,0,0,1-1.68,3.465A6.351,6.351,0,0,1,197.04.3H195a6.291,6.291,0,0,1-4.575-1.44,5.965,5.965,0,0,1-1.455-4.41v-5.1a5.965,5.965,0,0,1,1.455-4.41A6.291,6.291,0,0,1,195-16.5Zm16.92,0h2.01a6.447,6.447,0,0,1,4.545,1.35,5.674,5.674,0,0,1,1.425,4.29v3.57H208.41v1.83a5.72,5.72,0,0,0,.39,2.31A2.462,2.462,0,0,0,210-1.89a5.027,5.027,0,0,0,2.16.39h1.68a4.172,4.172,0,0,0,2.55-.66,3.084,3.084,0,0,0,1.08-2.13l2.34.15a4.7,4.7,0,0,1-1.755,3.33A6.819,6.819,0,0,1,213.93.27h-2.01a6.489,6.489,0,0,1-4.575-1.4A5.69,5.69,0,0,1,205.86-5.46v-5.4a6.8,6.8,0,0,1,.66-3.195,4.078,4.078,0,0,1,1.995-1.845A8.344,8.344,0,0,1,211.92-16.5Zm1.92,1.77h-1.68a5.284,5.284,0,0,0-2.145.36,2.417,2.417,0,0,0-1.2,1.2,5.235,5.235,0,0,0-.4,2.25v2.16h9.15v-2.16a4.06,4.06,0,0,0-.87-2.955A3.964,3.964,0,0,0,213.84-14.73Zm26.82-1.77h1.26a4.06,4.06,0,0,1,3.345,1.245,6.677,6.677,0,0,1,1.035,4.1V0h-2.55V-10.86a4.823,4.823,0,0,0-.69-2.85,2.738,2.738,0,0,0-2.28-.84h-1.05a8.391,8.391,0,0,0-3.81,1.35,7.68,7.68,0,0,1,.3,2.19V0h-2.55V-10.86a7,7,0,0,0-.315-2.145,2.122,2.122,0,0,0-.93-1.17,3.422,3.422,0,0,0-1.725-.375h-1.08a7.257,7.257,0,0,0-3.48,1.38V0h-2.55V-16.2h2.49v1.38a9.256,9.256,0,0,1,4.5-1.68h1.26q2.76,0,3.72,1.83A10.884,10.884,0,0,1,240.66-16.5Zm15.36,0h2.01a6.447,6.447,0,0,1,4.545,1.35A5.674,5.674,0,0,1,264-10.86v3.57H252.51v1.83a5.72,5.72,0,0,0,.39,2.31,2.462,2.462,0,0,0,1.2,1.26,5.027,5.027,0,0,0,2.16.39h1.68a4.172,4.172,0,0,0,2.55-.66,3.084,3.084,0,0,0,1.08-2.13l2.34.15a4.7,4.7,0,0,1-1.755,3.33A6.819,6.819,0,0,1,258.03.27h-2.01a6.489,6.489,0,0,1-4.575-1.4A5.69,5.69,0,0,1,249.96-5.46v-5.4a6.8,6.8,0,0,1,.66-3.195,4.078,4.078,0,0,1,1.995-1.845A8.344,8.344,0,0,1,256.02-16.5Zm1.92,1.77h-1.68a5.284,5.284,0,0,0-2.145.36,2.417,2.417,0,0,0-1.2,1.2,5.235,5.235,0,0,0-.4,2.25v2.16h9.15v-2.16a4.06,4.06,0,0,0-.87-2.955A3.964,3.964,0,0,0,257.94-14.73Zm17.37-1.77h1.41a4.728,4.728,0,0,1,3.7,1.245,6.369,6.369,0,0,1,1.155,4.1V0H279V-10.86a4.373,4.373,0,0,0-.78-2.85,3.376,3.376,0,0,0-2.61-.84h-1.2a9.173,9.173,0,0,0-4.17,1.5V0h-2.55V-16.2h2.49v1.44A11.429,11.429,0,0,1,275.31-16.5Zm13.89.3h4.47v1.86H289.2v9.3a3.76,3.76,0,0,0,.75,2.775,4.674,4.674,0,0,0,2.94.705h.78V.27q-.66.03-1.23.03a8.213,8.213,0,0,1-4.26-.84,2.894,2.894,0,0,1-1.185-1.515,7.747,7.747,0,0,1-.345-2.535v-9.75h-2.07V-16.2h2.07v-3.39h2.55Zm25.35,8.55h-9.12V-9.51h9.12Zm12.12-6.48v-2.16a6.061,6.061,0,0,1,.315-2.085,3.729,3.729,0,0,1,1.125-1.545,5.381,5.381,0,0,1,2.3-1.035,16.555,16.555,0,0,1,3.675-.345,18.674,18.674,0,0,1,3.75.315,5.266,5.266,0,0,1,2.31.99,3.626,3.626,0,0,1,1.125,1.53,6.164,6.164,0,0,1,.315,2.115l-2.64.15a3.162,3.162,0,0,0-.345-1.6,2.558,2.558,0,0,0-1.44-.96,9.766,9.766,0,0,0-3.045-.375,9.495,9.495,0,0,0-3,.375,2.433,2.433,0,0,0-1.41.975,3.3,3.3,0,0,0-.33,1.59v1.424a2.047,2.047,0,0,0,.525,1.424,3.156,3.156,0,0,0,1.532.757,22.517,22.517,0,0,0,3.169.43l2.632.358a10.231,10.231,0,0,1,2.075.515,4.458,4.458,0,0,1,1.634.947,4.178,4.178,0,0,1,.944,1.488,5.964,5.964,0,0,1,.36,2.18V-4.6a4.006,4.006,0,0,1-1.89,3.668Q338.46.24,334.14.24q-4.2,0-6-1.155a4.355,4.355,0,0,1-1.8-3.975l2.58-.12a2.554,2.554,0,0,0,1.155,2.325,8.153,8.153,0,0,0,4.1.735,8.791,8.791,0,0,0,4.17-.719,2.316,2.316,0,0,0,1.23-2.126V-6.233a3.546,3.546,0,0,0-.21-1.288,2.319,2.319,0,0,0-.585-.884,2.875,2.875,0,0,0-1.111-.569,9.615,9.615,0,0,0-1.538-.332l-2.11-.281-2.646-.352a10.917,10.917,0,0,1-2.015-.458,4.228,4.228,0,0,1-1.485-.8,3.4,3.4,0,0,1-.855-1.2A4.678,4.678,0,0,1,326.67-14.13Zm24.81-2.34H354a6.244,6.244,0,0,1,4.545,1.44A5.965,5.965,0,0,1,360-10.62v5.37a5.375,5.375,0,0,1-1.47,4.215A6.677,6.677,0,0,1,354,.27h-2.52a8.733,8.733,0,0,1-3.36-.555,4.03,4.03,0,0,1-2.01-1.785,6.46,6.46,0,0,1-.69-3.18v-5.37a5.927,5.927,0,0,1,1.47-4.41A6.347,6.347,0,0,1,351.48-16.47Zm2.28,1.83h-2.04a5.581,5.581,0,0,0-1.71.225,2.774,2.774,0,0,0-1.155.7,2.825,2.825,0,0,0-.675,1.245,7.047,7.047,0,0,0-.21,1.845v5.28a4,4,0,0,0,.87,2.94,4.062,4.062,0,0,0,2.88.84h2.04a4.012,4.012,0,0,0,2.85-.84,4,4,0,0,0,.87-2.94v-5.28a4.405,4.405,0,0,0-.885-3.09A3.764,3.764,0,0,0,353.76-14.64Zm17.76-7.92-.09,1.8a6.257,6.257,0,0,0-2.67.33,1.938,1.938,0,0,0-.99,1.08,6.045,6.045,0,0,0-.27,2.04v1.11h3.9v1.86h-3.9V0h-2.55V-14.34H362.7V-16.2h2.25v-1.11a8.394,8.394,0,0,1,.45-3.045,3.081,3.081,0,0,1,1.53-1.665,7.7,7.7,0,0,1,3.3-.57Q370.83-22.59,371.52-22.56Zm6.66,6.36h4.47v1.86h-4.47v9.3a3.76,3.76,0,0,0,.75,2.775,4.674,4.674,0,0,0,2.94.705h.78V.27q-.66.03-1.23.03a8.213,8.213,0,0,1-4.26-.84,2.894,2.894,0,0,1-1.185-1.515,7.747,7.747,0,0,1-.345-2.535v-9.75h-2.07V-16.2h2.07v-3.39h2.55ZM403.248,0H399l-2.974-11.766L393.025,0h-4.334L384.87-16.2h2.653L390.9-1.86h.6l3.27-14.34h2.46l3.562,14.34h.338l3.441-14.34h2.559ZM415.59-16.5h1.65q3.12,0,4.44,1.185T423-11.19V0h-2.49V-1.5A11.564,11.564,0,0,1,415.23.3h-1.71q-4.47,0-4.47-5.04A6.434,6.434,0,0,1,410.2-8.955,4.85,4.85,0,0,1,414-10.23h2.85a6.465,6.465,0,0,1,3.6.72v-1.71a3.885,3.885,0,0,0-.735-2.76,3.839,3.839,0,0,0-2.685-.72h-1.32a4.17,4.17,0,0,0-2.52.585,2.884,2.884,0,0,0-.87,2.145l-2.34-.12a4.984,4.984,0,0,1,.705-2.595,3.539,3.539,0,0,1,1.83-1.395A9.38,9.38,0,0,1,415.59-16.5Zm2.22,7.83h-2.79a4.285,4.285,0,0,0-1.995.39,2.361,2.361,0,0,0-1.08,1.185A5.488,5.488,0,0,0,411.6-4.95a3.608,3.608,0,0,0,.795,2.64,3.1,3.1,0,0,0,2.265.78h1.56a9.509,9.509,0,0,0,4.23-1.5V-8.07A4.03,4.03,0,0,0,417.81-8.67Zm18.03-5.7h-.81q-1.92,0-5.19,1.95V0h-2.55V-16.2h2.49v1.83q3.21-2.13,5.25-2.13h.81Zm8.19-2.13h2.01a6.447,6.447,0,0,1,4.545,1.35,5.674,5.674,0,0,1,1.425,4.29v3.57H440.52v1.83a5.721,5.721,0,0,0,.39,2.31,2.462,2.462,0,0,0,1.2,1.26,5.027,5.027,0,0,0,2.16.39h1.68a4.172,4.172,0,0,0,2.55-.66,3.084,3.084,0,0,0,1.08-2.13l2.34.15a4.7,4.7,0,0,1-1.755,3.33A6.819,6.819,0,0,1,446.04.27h-2.01a6.489,6.489,0,0,1-4.575-1.4A5.69,5.69,0,0,1,437.97-5.46v-5.4a6.8,6.8,0,0,1,.66-3.195,4.078,4.078,0,0,1,1.995-1.845A8.344,8.344,0,0,1,444.03-16.5Zm1.92,1.77h-1.68a5.284,5.284,0,0,0-2.145.36,2.417,2.417,0,0,0-1.2,1.2,5.235,5.235,0,0,0-.4,2.25v2.16h9.15v-2.16a4.06,4.06,0,0,0-.87-2.955A3.964,3.964,0,0,0,445.95-14.73Zm26.88,7.08h-9.12V-9.51h9.12ZM492.3-21.27h2.49a9.026,9.026,0,0,1,3.585.63,4.932,4.932,0,0,1,2.265,1.905,7.718,7.718,0,0,1,1.05,3.225l-2.67.18a4.354,4.354,0,0,0-1.35-2.88,4.757,4.757,0,0,0-3.12-.9h-2.01a4.42,4.42,0,0,0-3.51,1.245,6.276,6.276,0,0,0-1.08,4.125v6.51a8.276,8.276,0,0,0,.48,3.09,3.339,3.339,0,0,0,1.485,1.725,5.411,5.411,0,0,0,2.625.555h2.01a4.757,4.757,0,0,0,3.12-.9,4.354,4.354,0,0,0,1.35-2.88l2.67.15a6.367,6.367,0,0,1-2.025,4.365A7.382,7.382,0,0,1,494.79.3H492.3q-3.63,0-5.34-1.845T485.25-7.23v-6.54q0-3.84,1.71-5.67T492.3-21.27Zm18.84,4.8h2.52a6.244,6.244,0,0,1,4.545,1.44,5.965,5.965,0,0,1,1.455,4.41v5.37a5.375,5.375,0,0,1-1.47,4.215A6.677,6.677,0,0,1,513.66.27h-2.52a8.733,8.733,0,0,1-3.36-.555,4.03,4.03,0,0,1-2.01-1.785,6.46,6.46,0,0,1-.69-3.18v-5.37a5.927,5.927,0,0,1,1.47-4.41A6.347,6.347,0,0,1,511.14-16.47Zm2.28,1.83h-2.04a5.581,5.581,0,0,0-1.71.225,2.774,2.774,0,0,0-1.155.7,2.825,2.825,0,0,0-.675,1.245,7.047,7.047,0,0,0-.21,1.845v5.28a4,4,0,0,0,.87,2.94,4.062,4.062,0,0,0,2.88.84h2.04a4.012,4.012,0,0,0,2.85-.84,4,4,0,0,0,.87-2.94v-5.28a4.405,4.405,0,0,0-.885-3.09A3.764,3.764,0,0,0,513.42-14.64Zm17.73-1.86h1.41a4.728,4.728,0,0,1,3.7,1.245,6.369,6.369,0,0,1,1.155,4.1V0h-2.58V-10.86a4.373,4.373,0,0,0-.78-2.85,3.377,3.377,0,0,0-2.61-.84h-1.2a9.173,9.173,0,0,0-4.17,1.5V0h-2.55V-16.2h2.49v1.44A11.429,11.429,0,0,1,531.15-16.5Zm9.75,5.64V-12.6a4.314,4.314,0,0,1,.27-1.6,2.987,2.987,0,0,1,.945-1.215,4.517,4.517,0,0,1,1.935-.8,16.26,16.26,0,0,1,3.15-.255,17.507,17.507,0,0,1,3.165.24,4.663,4.663,0,0,1,1.965.765,2.871,2.871,0,0,1,.96,1.185,4.288,4.288,0,0,1,.27,1.62l-2.34.12a1.881,1.881,0,0,0-.795-1.7,6.309,6.309,0,0,0-3.135-.525,8.136,8.136,0,0,0-2.43.285,2,2,0,0,0-1.14.735,2.319,2.319,0,0,0-.27,1.2v1.08a1.544,1.544,0,0,0,.42,1.1,2.713,2.713,0,0,0,1.23.585,16.028,16.028,0,0,0,2.55.33q1.35.12,2.22.27a13.412,13.412,0,0,1,1.77.435,3.87,3.87,0,0,1,1.4.72,3.107,3.107,0,0,1,.795,1.14,4.318,4.318,0,0,1,.3,1.7v1.68a3.028,3.028,0,0,1-1.62,2.85,11.474,11.474,0,0,1-5.28.9,10.627,10.627,0,0,1-5.1-.9,3.289,3.289,0,0,1-1.53-3.09l2.55-.12a1.956,1.956,0,0,0,.93,1.8,6.662,6.662,0,0,0,3.255.57,6.853,6.853,0,0,0,3.285-.57,1.813,1.813,0,0,0,.96-1.65V-4.74a1.941,1.941,0,0,0-.9-1.89,9.685,9.685,0,0,0-3.33-.69,15.663,15.663,0,0,1-4.95-.99A2.672,2.672,0,0,1,540.9-10.86Zm19.08-5.34V-5.34a4.25,4.25,0,0,0,.81,2.85,3.529,3.529,0,0,0,2.67.84h1.26a9.524,9.524,0,0,0,4.26-1.5V-16.2h2.55V0h-2.49V-1.47A11.676,11.676,0,0,1,563.79.3h-1.41a6.192,6.192,0,0,1-2.88-.57,3.341,3.341,0,0,1-1.56-1.71,8.377,8.377,0,0,1-.51-3.06V-16.2ZM578.55,0H576V-22.5h2.55Zm7.65-16.2h4.47v1.86H586.2v9.3a3.76,3.76,0,0,0,.75,2.775,4.674,4.674,0,0,0,2.94.705h.78V.27q-.66.03-1.23.03a8.213,8.213,0,0,1-4.26-.84,2.893,2.893,0,0,1-1.185-1.515,7.748,7.748,0,0,1-.345-2.535v-9.75h-2.07V-16.2h2.07v-3.39h2.55Zm13.83-.3h1.65q3.12,0,4.44,1.185t1.32,4.125V0h-2.49V-1.5A11.564,11.564,0,0,1,599.67.3h-1.71q-4.47,0-4.47-5.04a6.434,6.434,0,0,1,1.155-4.215,4.85,4.85,0,0,1,3.795-1.275h2.85a6.465,6.465,0,0,1,3.6.72v-1.71a3.885,3.885,0,0,0-.735-2.76,3.839,3.839,0,0,0-2.685-.72h-1.32a4.17,4.17,0,0,0-2.52.585,2.884,2.884,0,0,0-.87,2.145l-2.34-.12a4.984,4.984,0,0,1,.705-2.595,3.539,3.539,0,0,1,1.83-1.395A9.379,9.379,0,0,1,600.03-16.5Zm2.22,7.83h-2.79a4.285,4.285,0,0,0-2,.39,2.361,2.361,0,0,0-1.08,1.185,5.488,5.488,0,0,0-.345,2.145,3.607,3.607,0,0,0,.8,2.64,3.1,3.1,0,0,0,2.265.78h1.56a9.51,9.51,0,0,0,4.23-1.5V-8.07A4.03,4.03,0,0,0,602.25-8.67Zm17.1-7.83h1.41a4.728,4.728,0,0,1,3.7,1.245,6.369,6.369,0,0,1,1.155,4.1V0h-2.58V-10.86a4.373,4.373,0,0,0-.78-2.85,3.377,3.377,0,0,0-2.61-.84h-1.2a9.173,9.173,0,0,0-4.17,1.5V0h-2.55V-16.2h2.49v1.44A11.429,11.429,0,0,1,619.35-16.5Zm15.93,0h2.04a6.351,6.351,0,0,1,4.11,1.155,5.016,5.016,0,0,1,1.68,3.465l-2.28.15a3.833,3.833,0,0,0-.555-1.68,2.484,2.484,0,0,0-1.2-.96,5.25,5.25,0,0,0-1.9-.3h-1.62a5.581,5.581,0,0,0-1.71.225,2.7,2.7,0,0,0-1.155.72,2.941,2.941,0,0,0-.675,1.245,6.876,6.876,0,0,0-.21,1.83v5.1a4.466,4.466,0,0,0,.87,3.075,3.765,3.765,0,0,0,2.88.945h1.62a4.029,4.029,0,0,0,2.58-.705,3.326,3.326,0,0,0,1.08-2.235l2.28.15a5.016,5.016,0,0,1-1.68,3.465A6.351,6.351,0,0,1,637.32.3h-2.04A6.291,6.291,0,0,1,630.7-1.14a5.965,5.965,0,0,1-1.455-4.41v-5.1a5.965,5.965,0,0,1,1.455-4.41A6.291,6.291,0,0,1,635.28-16.5ZM653.55,5.4l-2.37.043L652.913.032,650.61,0l-5.4-16.2h2.64L652.6-1.862l.893.091L658.11-16.2h2.64Z" transform="translate(1319 1238)" fill="#2c2c2c"/>
  </g>
</svg>
